<svg width="25" height="21" viewBox="0 0 25 21" fill="#ffffff" xmlns="http://www.w3.org/2000/svg"><path d="M23.5903 6.01751C23.0065 5.88996 22.4411 5.98066 21.9067 6.24428C21.2197 6.583 20.7405 7.12866 20.3842 7.7962C20.3136 7.928 20.2471 8.06264 20.1708 8.21004C20.1354 8.16327 20.1114 8.13493 20.0916 8.10516C19.1191 6.69922 18.4603 5.16147 18.1536 3.47491C18.0546 2.92643 17.9444 2.38077 17.7125 1.86914C17.3846 1.14632 16.8177 0.79342 16.0346 0.767909C15.5554 0.752319 15.1143 0.875623 14.6959 1.12932C14.6662 1.07262 14.6393 1.0216 14.6125 0.971998C14.3707 0.514216 14.023 0.1684 13.5098 0.0606872C13.2158 -0.00167309 12.8992 -0.0144286 12.5981 0.0153342C11.4234 0.128717 10.6558 1.10664 10.7957 2.28015C10.8042 2.34959 10.8042 2.42046 10.8099 2.49982C10.7604 2.49132 10.7349 2.48707 10.7081 2.48282C10.0606 2.39353 9.45985 2.50833 8.94388 2.92784C8.34592 3.41397 8.16356 4.06592 8.25121 4.80999C8.27241 4.99282 8.30776 5.17281 8.33603 5.35139C8.13106 5.36698 7.93456 5.37123 7.74231 5.39958C6.96624 5.51438 6.32163 6.07562 6.14917 6.79134C6.03749 7.25196 6.08132 7.71116 6.22126 8.15902C6.96765 10.5571 7.95011 12.8545 9.20681 15.0286C9.79629 16.0476 10.4056 17.0567 11.1675 17.9623C12.8426 19.9536 14.9772 20.872 17.5584 20.5531C19.7269 20.2853 21.3936 19.1571 22.5075 17.2608C23.2694 15.964 23.5507 14.5283 23.6257 13.043C23.6525 12.5242 23.6652 12.0013 23.7458 11.491C23.8617 10.7456 24.2095 10.0752 24.5205 9.39489C24.6802 9.04482 24.8385 8.68625 24.9361 8.31492C25.2075 7.27322 24.5954 6.24144 23.5903 6.02176V6.01751ZM12.7366 1.06554C12.8313 1.05562 12.9274 1.05562 13.0221 1.05703C13.3558 1.06129 13.6046 1.21577 13.7007 1.53182C13.8166 1.91024 13.9325 2.29715 13.9749 2.68974C14.1714 4.48118 14.6704 6.1805 15.4606 7.7962C15.602 8.08532 15.7306 8.38295 15.8607 8.66782C15.3786 8.89034 14.9178 9.10434 14.4556 9.31268C14.2251 9.41614 14.1488 9.38355 14.0117 9.13978C13.3204 7.91808 12.8087 6.62836 12.4963 5.25643C12.3422 4.57472 12.1372 3.90435 11.9789 3.22405C11.8983 2.87399 11.8559 2.51258 11.8234 2.15543C11.7669 1.53607 12.1146 1.13215 12.7366 1.06696V1.06554ZM23.9169 7.95635C23.8674 8.2228 23.7543 8.48216 23.6398 8.73018C23.2963 9.47142 22.9485 10.2098 22.752 11.0092C22.6333 11.491 22.5739 11.9786 22.5697 12.4746C22.5612 13.6935 22.417 14.8925 21.9307 16.0235C21.0896 17.9808 19.6011 19.1302 17.5132 19.4987C17.2432 19.5469 16.9647 19.5483 16.7753 19.5653C14.8019 19.5228 13.2455 18.7886 12.0227 17.3416C11.3654 16.5635 10.8367 15.6989 10.3137 14.8316C9.00749 12.6688 8.05189 10.3473 7.26592 7.9521C7.20231 7.75793 7.16697 7.54817 7.15849 7.34408C7.14011 6.86363 7.41577 6.54049 7.88792 6.45403C8.33038 6.37325 8.6032 6.48946 8.80111 6.89906C8.95095 7.20802 9.06545 7.53542 9.1743 7.86139C9.5899 9.1086 10.1313 10.2991 10.7816 11.44C10.8622 11.5817 10.9555 11.7235 11.0728 11.834C11.3286 12.075 11.7852 11.9389 11.8446 11.6058C11.8644 11.4953 11.8319 11.3621 11.7852 11.2544C11.699 11.0559 11.5888 10.8674 11.4841 10.6761C10.643 9.14261 10.0536 7.50849 9.57718 5.83185C9.4655 5.44068 9.36938 5.04101 9.31001 4.6385C9.19409 3.85474 9.95038 3.28216 10.6869 3.57837C10.9272 3.67475 11.0714 3.86892 11.1463 4.09852C11.2509 4.41457 11.3385 4.73771 11.4078 5.06368C11.764 6.75024 12.386 8.33193 13.2469 9.82149C13.3685 10.0312 13.3657 10.0638 13.2073 10.258C13.0844 10.4111 12.9585 10.5613 12.8412 10.7186C12.7083 10.8972 12.7069 11.0814 12.844 11.2614C12.9077 11.3465 12.9684 11.4329 13.0391 11.5123C13.2031 11.6965 13.3261 11.6951 13.483 11.5052C13.835 11.0758 14.2308 10.6959 14.6817 10.3714C15.544 9.75062 16.5138 9.38496 17.5415 9.1582C17.6192 9.14119 17.6956 9.11993 17.7719 9.09726C17.909 9.05616 18.0108 8.98529 18.008 8.82089C18.0051 8.66074 17.9217 8.52468 17.7606 8.4935C17.6065 8.46373 17.4453 8.45523 17.2884 8.46657C16.8997 8.49491 16.8672 8.48216 16.6975 8.13776C16.2409 7.20944 15.7957 6.27687 15.5087 5.27769C15.274 4.45992 15.1058 3.6294 15.0182 2.78328C14.9532 2.16109 15.4154 1.76 16.0897 1.83795C16.4374 1.87764 16.6834 2.05622 16.7838 2.38361C16.9096 2.7932 17.0241 3.20846 17.0976 3.63081C17.4581 5.69154 18.3204 7.52691 19.5488 9.20214C19.7269 9.44591 19.7326 9.49126 19.5205 9.71377C19.3594 9.88101 19.1813 10.0341 19.0017 10.1829C18.3713 10.7101 17.8609 11.3252 17.6404 12.1345C17.5726 12.3825 17.5401 12.6447 17.5302 12.9027C17.5203 13.1691 17.6164 13.2414 17.8793 13.2329C17.9698 13.23 18.0589 13.2187 18.1479 13.2074C18.4306 13.1677 18.4999 13.1053 18.5352 12.8204C18.6229 12.1104 18.9226 11.5151 19.4612 11.0418C19.669 10.8604 19.8669 10.6676 20.0789 10.4919C20.4606 10.1744 20.7334 9.79031 20.8705 9.30702C21.0289 8.75144 21.248 8.22421 21.6325 7.78202C22.058 7.29164 22.5739 6.99827 23.244 7.04929C23.7684 7.08897 23.9974 7.534 23.9197 7.95777L23.9169 7.95635Z" fill="#ffffff"></path><path d="M1.20423 3.56041C1.54349 3.76591 1.88135 3.97567 2.22909 4.167C2.78464 4.47314 3.34726 4.76935 3.90988 5.06131C4.03004 5.12367 4.16857 5.14918 4.3283 5.20162C4.41453 5.14634 4.51915 5.10241 4.58841 5.02587C4.66899 4.938 4.72411 4.82462 4.77783 4.71549C4.92343 4.41503 4.90364 4.28605 4.63647 4.08338C3.84768 3.48387 3.05323 2.89287 2.25595 2.30328C2.13438 2.21258 1.99443 2.14029 1.85307 2.0836C1.56752 1.96739 1.35124 2.02691 1.16606 2.27352C1.07417 2.3954 1.00208 2.53288 0.935636 2.67177C0.732076 3.09838 0.79993 3.31805 1.2014 3.56183L1.20423 3.56041Z" fill="#ffffff"></path><path d="M5.0107 12.7507C4.27845 12.9945 3.55044 13.2553 2.82384 13.5146C2.56515 13.6068 2.30928 13.7088 2.05907 13.8236C1.83007 13.9285 1.69437 14.1099 1.70144 14.4231C1.72123 14.6428 1.78766 14.8979 1.94316 15.1218C2.09017 15.3344 2.28808 15.4053 2.53971 15.3401C2.6217 15.3188 2.70227 15.2919 2.77861 15.2536C3.45007 14.9177 4.12295 14.5818 4.79159 14.2389C5.06018 14.1014 5.32453 13.954 5.57332 13.7853C5.67793 13.7145 5.78677 13.5855 5.80939 13.4679C5.9041 12.9761 5.4786 12.5962 5.01211 12.7507H5.0107Z" fill="#ffffff"></path><path d="M2.33614 9.63601C2.83939 9.63601 3.34122 9.63884 3.84446 9.63459C4.09467 9.63175 4.22472 9.52262 4.29257 9.28594C4.43676 8.78139 4.31661 8.57446 3.80912 8.45825C3.80347 8.45825 3.79923 8.45683 3.79357 8.45541C3.06981 8.32786 2.34745 8.19322 1.62227 8.077C1.2519 8.01747 0.878704 7.97495 0.504097 7.94803C0.263782 7.93102 0.118184 8.03873 0.0658802 8.27684C0.0178174 8.49651 -0.00480352 8.72753 0.000850928 8.95288C0.0093326 9.31003 0.186032 9.48152 0.546503 9.50562C1.14305 9.54672 1.74101 9.5779 2.33756 9.61475C2.33756 9.62183 2.33756 9.63034 2.33756 9.63742L2.33614 9.63601Z" fill="#ffffff"></path></svg>