<svg width="25" height="18" viewBox="0 0 25 18" fill="#ffffff" xmlns="http://www.w3.org/2000/svg"><g clip-path="url(#clip0_5216_21101)"><path d="M0.00748092 8.76428C0.00748092 5.98025 0.0124465 3.19622 3.25613e-05 0.412189C-0.00162263 0.0943921 0.0720333 -0.00243647 0.403899 4.63173e-05C2.36116 0.0165982 4.3176 4.63182e-05 6.27486 0.0108051C7.6768 0.019081 9.04896 0.227635 10.3458 0.784607C12.3105 1.62875 13.6082 3.09608 14.2413 5.12865C14.9282 7.33585 14.977 9.57946 14.4159 11.8173C13.6777 14.7643 11.7378 16.5056 8.82468 17.2149C7.87046 17.4474 6.89886 17.5459 5.91734 17.5467C4.08421 17.5475 2.25109 17.536 0.418796 17.5558C0.0587918 17.56 -0.00162263 17.4449 3.25613e-05 17.1155C0.0132741 14.3315 0.00748092 11.5475 0.00748092 8.76428ZM2.64172 8.78C2.64172 10.806 2.64172 12.8311 2.64089 14.857C2.64089 15.0515 2.60613 15.2386 2.91813 15.2295C4.32173 15.1864 5.72782 15.2923 7.13059 15.1492C9.49337 14.9075 11.0881 13.6231 11.7088 11.42C12.1193 9.96181 12.0912 8.47462 11.9058 6.99157C11.564 4.25306 9.90469 2.65745 7.16618 2.39593C5.79071 2.26435 4.41194 2.37359 3.03565 2.32476C2.69137 2.31235 2.63261 2.43897 2.63427 2.74601C2.64751 4.75624 2.64172 6.76812 2.64172 8.78Z" fill="#ffffff"></path><path d="M19.8395 6.02515C18.997 6.59453 18.1479 7.15564 17.3145 7.73827C17.0928 7.89303 16.9794 7.90213 16.8494 7.6431C16.6525 7.24999 16.4373 6.8635 16.1998 6.49357C16.0508 6.26101 16.1261 6.16915 16.3396 6.06653C17.1457 5.68004 17.9468 5.28279 18.7488 4.88803C18.8696 4.82845 18.9863 4.76141 19.1468 4.67534C18.2282 4.22844 17.3576 3.78816 16.4712 3.38347C16.1584 3.24029 16.1609 3.09877 16.3198 2.84387C16.5449 2.48221 16.7435 2.104 16.9496 1.73076C17.0274 1.59089 17.0928 1.5222 17.2616 1.64386C18.1173 2.26373 19.0202 2.81656 19.8478 3.4745C19.8635 3.45464 19.8809 3.4356 19.895 3.41491C19.8966 3.4116 19.8875 3.40084 19.8834 3.3934C19.8718 3.42153 19.8611 3.44885 19.8495 3.47698C19.9935 3.12526 19.8528 2.77436 19.8337 2.42677C19.794 1.72579 19.7204 1.02565 19.6351 0.327985C19.602 0.0581894 19.6881 -0.00553538 19.9389 0.00439576C20.3659 0.0209477 20.7946 0.0292236 21.2208 0.00191298C21.5204 -0.0171217 21.5543 0.10619 21.5303 0.358606C21.4484 1.23668 21.3847 2.11642 21.3135 2.99532C21.3027 3.13105 21.2903 3.26677 21.2771 3.41822C21.5336 3.37353 21.6809 3.19643 21.8564 3.07394C22.5011 2.62539 23.1433 2.17352 23.7723 1.70428C24.0007 1.53296 24.1074 1.57352 24.2274 1.81517C24.417 2.19669 24.6181 2.57573 24.8498 2.93243C25.0037 3.16912 24.9218 3.24608 24.7091 3.34788C23.8045 3.78154 22.9074 4.22927 21.9383 4.70513C22.3844 4.92279 22.7742 5.11562 23.1656 5.30431C23.711 5.56749 24.2539 5.83563 24.8059 6.08473C25.0277 6.18487 25.0468 6.2875 24.921 6.48695C24.6793 6.87178 24.4517 7.26571 24.2399 7.6671C24.1124 7.90793 24.0007 7.88972 23.8004 7.74489C22.9877 7.15564 22.1618 6.58377 21.2738 5.95811C21.3425 6.81302 21.3921 7.59841 21.4724 8.38048C21.5808 9.44146 21.5907 9.44394 20.5256 9.43732C20.2393 9.43567 19.8718 9.56146 19.6864 9.38353C19.4911 9.19566 19.684 8.83897 19.7013 8.55676C19.7526 7.73248 19.8337 6.90902 19.9033 6.08556C19.9008 6.05329 19.8991 6.02184 19.8966 5.98956C19.8793 6.00363 19.8594 6.01439 19.8395 6.02515Z" fill="#ffffff"></path></g></svg>