<svg width="25" height="18" viewBox="0 0 25 18" fill="#ffffff" xmlns="http://www.w3.org/2000/svg"><path d="M21.0938 0H3.90625C1.75781 0 0 1.76087 0 3.91304V14.087C0 16.2391 1.75781 18 3.90625 18H21.0938C23.2422 18 25 16.2391 25 14.087V3.91304C25 1.76087 23.2422 0 21.0938 0ZM3.90625 1.56522H21.0938C21.3906 1.56522 21.6719 1.62783 21.9375 1.72957L12.2969 9.9L2.80469 1.85478C3.13281 1.67478 3.50781 1.56522 3.90625 1.56522ZM1.5625 14.087V3.91304C1.5625 3.59217 1.625 3.28696 1.74219 3.00522L8.30469 8.56956L1.79688 15.0965C1.64844 14.7835 1.5625 14.447 1.5625 14.087ZM21.0938 16.4348H3.90625C3.54688 16.4348 3.21094 16.3487 2.89844 16.2L9.5 9.58696L11.7891 11.5278C11.9375 11.653 12.1172 11.7157 12.2969 11.7157C12.4766 11.7157 12.6562 11.653 12.8047 11.5278L15.3125 9.39913L22.1797 16.1609C21.8516 16.3252 21.4844 16.4348 21.0938 16.4348ZM23.4375 14.087C23.4375 14.4157 23.3672 14.7287 23.25 15.0104L16.5078 8.38174L22.9609 2.9113C23.0234 2.85652 23.0625 2.79391 23.1094 2.72348C23.3125 3.07565 23.4375 3.48261 23.4375 3.91304V14.087Z" fill="#ffffff"></path></svg>