<svg width="18" height="18" viewBox="0 0 18 18" fill="#ffffff" xmlns="http://www.w3.org/2000/svg">
<path d="M17.4864 12.7192L13.5489 11.0317C13.3807 10.96 13.1937 10.9449 13.0162 10.9887C12.8386 11.0324 12.6801 11.1327 12.5645 11.2743L10.8207 13.4048C8.08409 12.1145 5.88171 9.91208 4.59141 7.17542L6.72187 5.43167C6.86379 5.31625 6.96424 5.15773 7.00801 4.98011C7.05178 4.80249 7.03649 4.61545 6.96445 4.4473L5.27695 0.509798C5.19789 0.328536 5.05806 0.180541 4.88157 0.0913331C4.70508 0.00212525 4.50299 -0.0227041 4.31016 0.0211265L0.653906 0.864877C0.467989 0.907809 0.302114 1.01249 0.183352 1.16184C0.0645909 1.31118 -4.28277e-05 1.49637 2.12914e-08 1.68718C2.12914e-08 10.7048 7.30898 17.9997 16.3125 17.9997C16.5034 17.9998 16.6886 17.9352 16.8381 17.8164C16.9875 17.6977 17.0922 17.5318 17.1352 17.3458L17.9789 13.6895C18.0225 13.4958 17.9971 13.2929 17.9072 13.1158C17.8173 12.9387 17.6685 12.7984 17.4864 12.7192V12.7192Z" fill="#ffffff"></path>
</svg>