<svg width="22" height="16" viewBox="0 0 22 16" fill="#ffffff" xmlns="http://www.w3.org/2000/svg"><path d="M21.5403 2.50346C21.2873 1.51804 20.5418 0.741958 19.5953 0.478583C17.8796 0 11 0 11 0C11 0 4.12044 0 2.40474 0.478583C1.45821 0.742 0.71273 1.51804 0.459711 2.50346C0 4.28958 0 8.01617 0 8.01617C0 8.01617 0 11.7428 0.459711 13.5289C0.71273 14.5143 1.45821 15.258 2.40474 15.5214C4.12044 16 11 16 11 16C11 16 17.8796 16 19.5953 15.5214C20.5418 15.258 21.2873 14.5143 21.5403 13.5289C22 11.7428 22 8.01617 22 8.01617C22 8.01617 22 4.28958 21.5403 2.50346ZM8.74998 11.3996V4.63271L14.5 8.01625L8.74998 11.3996Z" fill="#ffffff"></path></svg>